# xmcd
#
# Track frame offsets: 
#        150
#        12450
#        26567
#        37610
#        51325
#        63637
#        76775
#        90967
#        105532
#        123950
#        135967
#        150130
#        163665
#        176587
#        188932
#        203190
#        216837
#        231037
#        243645
#        257777
#        271220
#        283770
#        298110
#        312305
#
# Disc length: 4315 seconds
#
# Revision: 2
# Processed by: cddbd v1.5.1PL0 Copyright (c) Steve Scherf et al.
# Submitted via: ExactAudioCopy v0.90b4
#
DISCID=4710d918
DTITLE=Ella Fitzgerald - A Portrait of - CD 2
DYEAR=1997
DGENRE=Jazz
TTITLE0=I'll Chase The Blues Away
TTITLE1=Crying My Heart Out For You
TTITLE2=When I Get Low, I Get High
TTITLE3=A Little Bet Later On
TTITLE4=My Last Affair
TTITLE5=Organ Grinder's Swing
TTITLE6=Everyone's Wrong But Me
TTITLE7=Holiday In Harlem
TTITLE8=Hallelujah!
TTITLE9=If Dreams Come True
TTITLE10=Bei Mir Bist Du Schon
TTITLE11=It's Wonderful
TTITLE12=Saving Myself For You
TTITLE13=Everybody Step
TTITLE14=My Heart Belongs To Daddy
TTITLE15=Chew Chew Chew (Your Bubble Gum)
TTITLE16=I Want The Waiter (With The Water)
TTITLE17=Sugar Blues
TTITLE18=The Starlit Hour
TTITLE19=Imagination
TTITLE20=Shake Down The Stars
TTITLE21=Five O'Clock Whistle
TTITLE22=Louisville, K.Y.
TTITLE23=Three Little Words
EXTD=
EXTT0=
EXTT1=
EXTT2=
EXTT3=
EXTT4=
EXTT5=
EXTT6=
EXTT7=
EXTT8=
EXTT9=
EXTT10=
EXTT11=
EXTT12=
EXTT13=
EXTT14=
EXTT15=
EXTT16=
EXTT17=
EXTT18=
EXTT19=
EXTT20=
EXTT21=
EXTT22=
EXTT23=
PLAYORDER=
